<?xml version="1.0" encoding="UTF-8" standalone="no"?>
<!-- Created with Inkscape (http://www.inkscape.org/) -->

<svg
   xmlns:dc="http://purl.org/dc/elements/1.1/"
   xmlns:cc="http://creativecommons.org/ns#"
   xmlns:rdf="http://www.w3.org/1999/02/22-rdf-syntax-ns#"
   xmlns:svg="http://www.w3.org/2000/svg"
   xmlns="http://www.w3.org/2000/svg"
   xmlns:sodipodi="http://sodipodi.sourceforge.net/DTD/sodipodi-0.dtd"
   xmlns:inkscape="http://www.inkscape.org/namespaces/inkscape"
   width="44.533615mm"
   height="44.533981mm"
   viewBox="0 0 44.533615 44.533981"
   version="1.1"
   id="svg1364"
   inkscape:version="0.92.3 (2405546, 2018-03-11)"
   sodipodi:docname="jupiter.svg">
  <defs
     id="defs1358" />
  <sodipodi:namedview
     id="base"
     pagecolor="#ffffff"
     bordercolor="#666666"
     borderopacity="1.0"
     inkscape:pageopacity="0.0"
     inkscape:pageshadow="2"
     inkscape:zoom="0.7"
     inkscape:cx="17.380708"
     inkscape:cy="28.444334"
     inkscape:document-units="mm"
     inkscape:current-layer="layer1"
     showgrid="false"
     fit-margin-top="0"
     fit-margin-left="0"
     fit-margin-right="0"
     fit-margin-bottom="0"
     inkscape:window-width="1366"
     inkscape:window-height="705"
     inkscape:window-x="0"
     inkscape:window-y="30"
     inkscape:window-maximized="1" />
  <metadata
     id="metadata1361">
    <rdf:RDF>
      <cc:Work
         rdf:about="">
        <dc:format>image/svg+xml</dc:format>
        <dc:type
           rdf:resource="http://purl.org/dc/dcmitype/StillImage" />
        <dc:title></dc:title>
      </cc:Work>
    </rdf:RDF>
  </metadata>
  <g
     inkscape:label="Livello 1"
     inkscape:groupmode="layer"
     id="layer1"
     transform="translate(-13.640931,-111.82525)">
    <path
       d="m 25.14748,151.32121 c -1.268941,0 -2.509308,-0.11289 -3.714749,-0.31398 v 0 c -1.734961,-1.4799 -3.234972,-3.22474 -4.445353,-5.16995 h 22.789091 c -3.910542,3.42053 -9.027583,5.48393 -14.628989,5.48393 m 17.015531,-7.90999 H 15.678925 v 0 c -0.05362,-0.11712 -0.107244,-0.23071 -0.15628,-0.34819 h 26.925058 c -0.0882,0.11748 -0.186267,0.23566 -0.284692,0.34819 v 0 m -26.650244,-0.37288 c -0.343253,-0.77365 -0.637469,-1.56775 -0.892175,-2.38619 l 0.892175,2.38619 m 28.650494,-2.40101 H 14.616006 c -0.451203,-1.46509 -0.750711,-2.99932 -0.892175,-4.57764 h 32.561741 c -0.534459,1.61748 -1.250599,3.15136 -2.122311,4.57764 v 0 m -30.43943,-4.57764 v 0 -0.0145 c -0.05398,-0.64242 -0.0829,-1.294 -0.0829,-1.95087 0,-1.31339 0.117122,-2.60209 0.337608,-3.85163 v -0.0441 c 0.357364,-2.00942 0.98037,-3.92606 1.832681,-5.70935 l 0.02469,-0.0494 c 0.391936,-0.8135 0.833262,-1.59737 1.313039,-2.34773 l 0.01976,-0.0289 c 3.959929,-6.15597 10.870493,-10.23796 18.736026,-10.23796 1.269294,0 2.509661,0.10759 3.715103,0.3182 0.244827,0.0395 0.490009,0.0882 0.730602,0.13758 0.171098,0.0293 0.342548,0.0684 0.509059,0.1076 0.235656,0.0536 0.470958,0.11289 0.70626,0.17145 0.02928,0.01 0.05856,0.0152 0.09313,0.0243 0.259646,0.0737 0.518938,0.14746 0.773996,0.22578 0.05397,0.0145 0.10795,0.0346 0.156634,0.049 0.191558,0.0586 0.382058,0.12241 0.573262,0.18626 l 0.02506,0.01 v 0 0 l -0.02506,-0.01 c -0.191201,-0.0639 -0.381701,-0.1277 -0.573259,-0.18626 -0.04868,-0.0145 -0.102659,-0.0346 -0.156634,-0.049 -0.255058,-0.0783 -0.51435,-0.15205 -0.773996,-0.22578 -0.03457,-0.009 -0.06385,-0.0145 -0.09313,-0.0243 -0.235302,-0.0586 -0.470604,-0.11783 -0.70626,-0.17145 -0.166511,-0.0392 -0.337961,-0.0783 -0.509059,-0.1076 -0.240593,-0.0494 -0.485775,-0.0981 -0.730602,-0.13758 3.048352,2.60738 5.381271,6.02368 6.669969,9.91976 v 0 H 17.168706 l -0.01976,0.0289 -1.313039,2.34774 -0.02469,0.0494 h 31.130521 c 0.308682,1.47496 0.470607,2.99896 0.470607,4.56247 0,0.38241 -0.0095,0.76447 -0.02963,1.14688 v 0 H 13.978536 v 0.0441 l -0.254705,5.80249 v 0.0145 M 55.97038,124.42966 v 0 c -0.109715,-0.23036 -0.226835,-0.45967 -0.344665,-0.68051 -0.151693,-0.28927 -0.308327,-0.57361 -0.474837,-0.85795 -0.152048,-0.26 -0.309388,-0.51964 -0.470958,-0.77435 l -0.03387,-0.0536 c -0.20108,-0.30903 -0.402164,-0.60784 -0.617712,-0.90699 -0.185915,-0.25965 -0.376766,-0.51435 -0.573265,-0.76941 -0.495651,-0.62724 -1.019526,-1.23014 -1.578678,-1.8034 -0.220134,-0.22543 -0.45085,-0.45085 -0.681215,-0.67169 -0.117123,-0.1076 -0.234244,-0.21519 -0.352425,-0.32314 -0.117827,-0.10795 -0.235302,-0.2159 -0.358069,-0.31856 -0.239538,-0.21061 -0.490008,-0.41663 -0.739423,-0.61278 -0.122766,-0.0981 -0.250118,-0.19579 -0.377825,-0.29421 -0.538691,-0.41134 -1.093258,-0.79375 -1.666523,-1.15147 -0.107243,-0.0688 -0.215193,-0.13265 -0.323143,-0.20108 -0.412044,-0.24483 -0.832909,-0.48013 -1.264709,-0.70556 -0.122415,-0.0589 -0.239183,-0.12241 -0.36195,-0.18133 -0.583848,-0.28434 -1.17616,-0.54892 -1.78435,-0.78422 v 0 0 c 0.60819,0.2353 1.200502,0.49988 1.78435,0.78422 0.122767,0.0589 0.239535,0.12242 0.36195,0.18133 0.4318,0.22049 0.852665,0.45579 1.264709,0.70556 0.10795,0.0684 0.2159,0.13229 0.323143,0.20108 0.573265,0.35772 1.127832,0.74013 1.666523,1.15147 0.127707,0.0984 0.255059,0.19614 0.377825,0.29421 0.249415,0.19615 0.499885,0.40217 0.739423,0.61278 0.122767,0.10266 0.240242,0.21061 0.358069,0.31856 0.118181,0.10795 0.235302,0.21554 0.352425,0.32314 0.235656,0.2159 0.461081,0.44168 0.681215,0.67169 0.559152,0.57326 1.083027,1.17616 1.578678,1.8034 0.196499,0.25506 0.38735,0.50976 0.573265,0.76941 0.215548,0.29915 0.416632,0.59796 0.617715,0.90699 l 0.03387,0.0536 c 0.16157,0.2547 0.31891,0.51435 0.470958,0.77435 0.16651,0.28434 0.323144,0.56867 0.474837,0.85795 0.11783,0.22084 0.23495,0.45015 0.344665,0.68051"
       style="fill:#df7e18;fill-opacity:1;fill-rule:nonzero;stroke:none;stroke-width:0.03527778"
       id="path186-5"
       inkscape:connector-curvature="0" />
    <path
       d="m 35.904733,156.35923 c -0.259292,0 -0.51435,-0.005 -0.768703,-0.0152 H 35.1258 c -0.255059,-0.009 -0.509764,-0.024 -0.76447,-0.0392 -0.338314,-0.019 -0.676275,-0.0536 -1.00965,-0.0928 -0.337608,-0.0342 -0.671689,-0.0833 -1.000125,-0.13759 -0.494947,-0.078 -0.984955,-0.1711 -1.469672,-0.28398 -0.240947,-0.0589 -0.480483,-0.11748 -0.720725,-0.18063 l -0.03916,-0.01 c -0.225425,-0.0593 -0.451203,-0.12276 -0.676275,-0.19155 -0.510117,-0.15664 -1.009297,-0.32774 -1.504245,-0.51929 -0.235302,-0.0886 -0.470605,-0.18133 -0.701675,-0.27976 -0.04833,-0.0243 -0.09772,-0.0438 -0.146755,-0.0639 -0.288925,-0.12735 -0.573264,-0.25435 -0.857956,-0.39158 -0.278341,-0.13758 -0.563033,-0.27975 -0.837494,-0.42615 -0.235656,-0.12771 -0.470253,-0.26035 -0.70097,-0.39688 -0.05362,-0.0303 -0.10795,-0.0642 -0.161925,-0.0935 -0.41169,-0.2448 -0.813504,-0.50479 -1.20544,-0.77432 -0.396875,-0.26952 -0.779286,-0.55386 -1.151114,-0.84772 -0.255764,-0.1965 -0.500239,-0.40217 -0.745419,-0.60819 1.205441,0.20108 2.445808,0.31397 3.714749,0.31397 5.601406,0 10.718447,-2.0634 14.628989,-5.48393 H 54.82738 c -0.440973,0.7105 -0.916517,1.38642 -1.431573,2.03906 -0.102304,0.12664 -0.205669,0.25435 -0.308327,0.37676 -1.048808,1.27424 -2.229908,2.42182 -3.533423,3.43077 -0.230717,0.18168 -0.460727,0.35807 -0.700969,0.52493 -0.161573,0.11677 -0.328083,0.2346 -0.499885,0.34749 -0.147108,0.10266 -0.299508,0.20073 -0.446265,0.29386 -0.151341,0.0984 -0.303741,0.19156 -0.45579,0.28434 -0.308678,0.19156 -0.621593,0.36759 -0.945091,0.54398 -0.1524,0.0833 -0.309034,0.16651 -0.466019,0.24518 -0.593373,0.30375 -1.200502,0.58315 -1.823156,0.83326 -0.137229,0.0536 -0.274109,0.1076 -0.416629,0.16158 -0.249767,0.0924 -0.499888,0.18626 -0.75424,0.26917 -0.09842,0.0346 -0.196498,0.0695 -0.294923,0.0984 -0.57785,0.18626 -1.170868,0.35277 -1.768475,0.49 -0.235302,0.0589 -0.47131,0.10795 -0.70626,0.1517 -0.200732,0.0441 -0.406754,0.079 -0.612423,0.11289 -0.05891,0.0152 -0.122414,0.0247 -0.181681,0.03 -0.195439,0.0335 -0.391583,0.0628 -0.592314,0.0921 -0.255058,0.03 -0.510469,0.0642 -0.769761,0.0885 -0.225778,0.0198 -0.451203,0.0395 -0.681566,0.0536 -0.288573,0.0198 -0.578203,0.0346 -0.871714,0.0444 -0.220839,0.005 -0.441325,0.01 -0.662164,0.01 M 56.136186,143.41122 H 42.163011 v 0 c 0.09843,-0.11253 0.196496,-0.23071 0.284692,-0.34819 h 13.844762 c -0.04903,0.11748 -0.10301,0.23107 -0.156279,0.34819 v 0 m 1.062919,-2.77389 H 44.163261 v 0 c 0.871712,-1.42628 1.587852,-2.96016 2.122311,-4.57764 h 11.805356 c -0.01447,0.13229 -0.024,0.26493 -0.03881,0.40216 -0.02011,0.15664 -0.03422,0.31362 -0.05891,0.47061 -0.01447,0.11747 -0.02928,0.23989 -0.04939,0.3623 -0.01939,0.13759 -0.03916,0.27975 -0.0635,0.41699 -0.01482,0.11253 -0.03422,0.22013 -0.05398,0.32808 -0.02858,0.16157 -0.05891,0.31856 -0.0882,0.47554 -0.03422,0.14676 -0.06385,0.29881 -0.09772,0.44556 -0.03422,0.1718 -0.07338,0.33831 -0.117475,0.50518 -0.09807,0.39193 -0.206727,0.78387 -0.32385,1.17122 v 0 m 0.961318,-7.3219 c -0.01024,-0.25506 -0.02506,-0.50483 -0.03986,-0.75953 -0.01976,-0.30374 -0.0441,-0.6029 -0.07867,-0.90205 -0.01376,-0.1323 -0.02893,-0.26459 -0.04868,-0.39688 -0.01447,-0.14217 -0.03387,-0.28892 -0.05891,-0.43109 -0.02963,-0.19615 -0.05856,-0.38735 -0.0882,-0.57856 l -0.0092,-0.0487 h -10.45419 v 0 c 0.02011,-0.38241 0.02963,-0.76447 0.02963,-1.14688 0,-1.56351 -0.161925,-3.08751 -0.470606,-4.56248 h 9.056864 0.0049 c 0.02434,0.0586 0.05856,0.127 0.08855,0.19086 0.102659,0.22048 0.205669,0.44556 0.30339,0.67627 0.103362,0.24024 0.200377,0.48542 0.293862,0.73025 0.02506,0.0586 0.0441,0.11289 0.06844,0.17145 0.0889,0.23989 0.177093,0.48507 0.26035,0.73061 l 0.01482,0.0536 c 0.09313,0.27446 0.181326,0.55386 0.259291,0.8329 0.08326,0.28928 0.161573,0.57821 0.235302,0.87242 0.02928,0.11289 0.05398,0.22049 0.07867,0.33338 0.03916,0.16192 0.07303,0.3235 0.106892,0.48542 0.01516,0.0688 0.02506,0.13229 0.04022,0.19579 0.02434,0.12735 0.04868,0.26 0.07303,0.39229 l 0.01058,0.0441 0.0092,0.0487 c 0.02963,0.19121 0.05856,0.38241 0.0882,0.57856 0.02506,0.14217 0.04445,0.28892 0.05891,0.43109 0.01976,0.13229 0.03493,0.26458 0.04868,0.39688 0.03457,0.29915 0.05891,0.59831 0.07867,0.90205 0.01482,0.2547 0.02963,0.50447 0.03986,0.75953 v 0 m -2.190044,-8.88577 -1.324326,-2.36643 h -8.356249 v 0 c -1.28868,-3.89608 -3.621599,-7.31238 -6.669951,-9.91976 0.244827,0.0395 0.490009,0.0882 0.730602,0.13758 0.171098,0.0293 0.342548,0.0684 0.509059,0.1076 0.235656,0.0536 0.470958,0.11289 0.70626,0.17145 0.02928,0.01 0.05856,0.0152 0.09313,0.0243 0.259646,0.0737 0.518938,0.14746 0.773996,0.22578 0.05397,0.0145 0.10795,0.0346 0.156634,0.049 0.191558,0.0586 0.382058,0.12241 0.573262,0.18626 l 0.02506,0.01 v 0 c 0.186266,0.0639 0.372181,0.1323 0.558093,0.20567 0.07373,0.0247 0.147463,0.0494 0.22084,0.0787 v 0 c 0.60819,0.23531 1.200502,0.49989 1.78435,0.78423 0.122767,0.0589 0.239535,0.12241 0.36195,0.18133 0.4318,0.22542 0.852665,0.46072 1.264708,0.70555 0.10795,0.0684 0.2159,0.13229 0.323144,0.20108 0.573265,0.35772 1.127831,0.74013 1.666523,1.15147 0.127707,0.0984 0.255058,0.19615 0.377825,0.29422 0.249415,0.19614 0.499885,0.40216 0.739423,0.61277 0.122767,0.10266 0.240242,0.21061 0.358069,0.31856 0.118181,0.10795 0.235302,0.21555 0.352425,0.32315 0.230365,0.22083 0.461081,0.44626 0.681215,0.67168 0.559151,0.57327 1.083026,1.17617 1.578678,1.8034 0.196498,0.25506 0.38735,0.50977 0.573265,0.76941 0.215548,0.29916 0.416632,0.59796 0.617715,0.907 l 0.03387,0.0536 c 0.16157,0.2547 0.31891,0.51435 0.470958,0.77434 0.16651,0.28434 0.323143,0.56868 0.474837,0.85796 0.11783,0.22084 0.23495,0.45014 0.344665,0.68051"
       style="fill:#80471b;fill-opacity:1;fill-rule:nonzero;stroke:none;stroke-width:0.03527778"
       id="path190-62"
       inkscape:connector-curvature="0" />
    <path
       d="m 46.941738,124.48928 v 0 H 15.811217 l 0.02469,-0.0494 1.313039,-2.34773 0.01976,-0.0289 h 29.121098 c 0.264583,0.78845 0.480483,1.59773 0.651933,2.42605 v 0"
       style="fill:#a05a1d;fill-opacity:1;fill-rule:nonzero;stroke:none;stroke-width:0.03527778"
       id="path194-9"
       inkscape:connector-curvature="0" />
    <path
       d="m 56.00354,124.48928 h -9.061802 v 0 c -0.17145,-0.82832 -0.38735,-1.63759 -0.651933,-2.42605 h 8.356248 l 1.324327,2.36643 c 0.0095,0.0198 0.01871,0.0395 0.02822,0.0596 h 0.0049"
       style="fill:#7a441a;fill-opacity:1;fill-rule:nonzero;stroke:none;stroke-width:0.03527778"
       id="path196-1"
       inkscape:connector-curvature="0" />
    <path
       d="M 46.285572,136.05969 H 13.723831 v 0 -0.0145 l 0.254705,-5.80249 v -0.0441 h 33.404175 c -0.103013,2.03835 -0.480483,4.00367 -1.097139,5.86105 v 0"
       style="fill:#a05a1d;fill-opacity:1;fill-rule:nonzero;stroke:none;stroke-width:0.03527778"
       id="path198-2"
       inkscape:connector-curvature="0" />
    <path
       d="M 58.090928,136.05969 H 46.285572 v 0 c 0.616656,-1.85738 0.994126,-3.8227 1.097139,-5.86105 h 10.454217 l 0.0092,0.0487 c 0.02963,0.1912 0.05856,0.38241 0.0882,0.57855 0.02506,0.14217 0.04445,0.28893 0.05891,0.4311 0.01976,0.13229 0.03493,0.26458 0.04868,0.39687 0.03457,0.29916 0.05891,0.59831 0.07867,0.90206 0.01482,0.2547 0.02963,0.50447 0.03986,0.75953 v 0.01 0 0 c 0.0092,0.2547 0.0141,0.50941 0.0141,0.76905 0,0.25012 -0.0049,0.50024 -0.0141,0.75001 0,0.13229 -0.01024,0.26458 -0.01516,0.39687 -0.01516,0.27446 -0.03422,0.54399 -0.05433,0.81845 v 0"
       style="fill:#7a441a;fill-opacity:1;fill-rule:nonzero;stroke:none;stroke-width:0.03527778"
       id="path200-7"
       inkscape:connector-curvature="0" />
    <path
       d="M 42.447703,143.06303 H 15.522645 v 0 l -0.0099,-0.0247 v 0 l -0.892173,-2.38619 v 0 l -0.0046,-0.0148 h 29.547255 c -0.515408,0.84808 -1.087966,1.65629 -1.715558,2.4257 v 0"
       style="fill:#a05a1d;fill-opacity:1;fill-rule:nonzero;stroke:none;stroke-width:0.03527778"
       id="path202-0"
       inkscape:connector-curvature="0" />
    <path
       d="M 56.292465,143.06303 H 42.447703 v 0 c 0.627592,-0.76941 1.20015,-1.57762 1.715558,-2.4257 h 13.035844 c -0.0635,0.20073 -0.127,0.40181 -0.196498,0.59761 -0.04374,0.1277 -0.08749,0.25505 -0.131585,0.37782 -0.02963,0.0878 -0.05891,0.17145 -0.09349,0.25471 -0.07338,0.20073 -0.151696,0.40181 -0.235304,0.60254 -0.06844,0.17145 -0.136877,0.33867 -0.210254,0.50518 l -0.03951,0.0878 v 0"
       style="fill:#7a441a;fill-opacity:1;fill-rule:nonzero;stroke:none;stroke-width:0.03527778"
       id="path204-9"
       inkscape:connector-curvature="0" />
    <path
       d="M 39.776469,145.83728 H 16.987378 v 0 c -0.484717,-0.77929 -0.921808,-1.58786 -1.308453,-2.42606 h 26.484086 c -0.729898,0.87242 -1.528939,1.68099 -2.386542,2.42606 v 0"
       style="fill:#a05a1d;fill-opacity:1;fill-rule:nonzero;stroke:none;stroke-width:0.03527778"
       id="path206-36"
       inkscape:connector-curvature="0" />
    <path
       d="M 54.82738,145.83728 H 39.776469 v 0 c 0.857603,-0.74507 1.656644,-1.55364 2.386542,-2.42606 h 13.973175 l -0.02999,0.0639 c -0.08854,0.18556 -0.176035,0.37183 -0.26952,0.5581 -0.07338,0.14711 -0.151342,0.29457 -0.230365,0.44132 -0.137231,0.26494 -0.279048,0.52 -0.426156,0.7747 -0.10795,0.18627 -0.215546,0.37218 -0.333727,0.55387 l -0.01905,0.0342 v 0"
       style="fill:#7a441a;fill-opacity:1;fill-rule:nonzero;stroke:none;stroke-width:0.03527778"
       id="path208"
       inkscape:connector-curvature="0" />
  </g>
</svg>
